<svg width="1065" height="188" viewBox="0 0 1065 188" fill="none" xmlns="http://www.w3.org/2000/svg">
<g clip-path="url(#clip0_2_252)">
<rect width="1065" height="188" rx="8" fill="url(#paint0_linear_2_252)"/>
<path d="M38.8316 103V37.72H52.2716V71.128H80.2076V37.72H93.6476V103H80.2076V83.128H52.2716V103H38.8316ZM138.853 103.864C120.037 103.864 105.061 89.656 105.061 70.36C105.061 51.064 120.037 36.856 138.853 36.856C157.669 36.856 172.645 51.064 172.645 70.36C172.645 89.656 157.669 103.864 138.853 103.864ZM138.853 91.864C150.757 91.864 158.821 82.552 158.821 70.36C158.821 58.168 150.757 48.856 138.853 48.856C126.949 48.856 118.885 58.168 118.885 70.36C118.885 82.552 126.949 91.864 138.853 91.864ZM184.05 103V37.72H197.49V91.192H227.058V103H184.05ZM233.063 103L261.767 37.144H262.919L292.775 103H278.663L275.591 95.608H249.095L246.023 103H233.063ZM253.607 84.376H270.791L266.087 73.048C264.167 68.44 262.151 61.336 262.151 61.336C262.151 61.336 260.231 68.44 258.311 73.048L253.607 84.376Z" fill="white"/>
<path d="M303.245 80.824L301.133 37.72H315.629L313.517 80.824H303.245ZM308.429 103.576C304.013 103.576 300.269 100.216 300.269 95.416C300.269 90.712 304.013 87.352 308.429 87.352C312.749 87.352 316.493 90.712 316.493 95.416C316.493 100.216 312.749 103.576 308.429 103.576Z" fill="url(#paint1_linear_2_252)"/>
<path d="M34.5845 149V127.24H43.0005C47.0645 127.24 49.3365 129.8 49.3365 132.872C49.3365 134.888 48.1525 136.264 46.2645 136.872C49.2405 137.576 50.6805 139.56 50.6805 142.28C50.6805 146.152 47.9285 149 43.3845 149H34.5845ZM39.0645 135.272H42.5205C43.9605 135.272 44.9205 134.472 44.9205 133.224C44.9205 131.976 44.1205 131.176 42.7445 131.176H39.0645V135.272ZM39.0645 145.064H43.1925C45.0165 145.064 46.1685 143.848 46.1685 142.056C46.1685 140.296 44.9845 139.08 42.9365 139.08H39.0645V145.064ZM54.2118 149V127.24H58.6918V149H54.2118ZM63.3033 149V127.24H77.7033V131.176H67.7833V138.088H76.5193V141.928H67.7833V145.064H78.1513V149H63.3033ZM99.7433 149.192L88.7673 138.888C87.6793 137.864 86.1753 135.912 86.1753 135.912C86.1753 135.912 86.4953 138.312 86.4953 139.88V149H82.3033V127.048H82.7513L93.7273 137.352C94.7833 138.344 96.2873 140.328 96.2873 140.328C96.2873 140.328 95.9993 137.864 95.9993 136.36V127.24H100.191V149.192H99.7433ZM113.061 149.192L103.141 127.24H107.941L111.685 135.624C112.517 137.48 113.381 140.552 113.381 140.552C113.381 140.552 114.213 137.512 115.045 135.624L118.693 127.24H123.045L113.509 149.192H113.061ZM125.991 149V127.24H140.391V131.176H130.471V138.088H139.207V141.928H130.471V145.064H140.839V149H125.991ZM162.431 149.192L151.455 138.888C150.367 137.864 148.863 135.912 148.863 135.912C148.863 135.912 149.183 138.312 149.183 139.88V149H144.991V127.048H145.439L156.415 137.352C157.471 138.344 158.975 140.328 158.975 140.328C158.975 140.328 158.687 137.864 158.687 136.36V127.24H162.879V149.192H162.431ZM167.524 149V127.24H172.004V149H167.524ZM176.616 149V127.24H183.304C189.992 127.24 194.76 131.688 194.76 138.12C194.76 144.552 190.024 149 183.304 149H176.616ZM181.096 145.064H183.08C187.912 145.064 190.12 142.184 190.12 138.12C190.12 134.056 187.912 131.176 183.08 131.176H181.096V145.064ZM209.05 149.288C202.778 149.288 197.786 144.552 197.786 138.12C197.786 131.688 202.778 126.952 209.05 126.952C215.322 126.952 220.314 131.688 220.314 138.12C220.314 144.552 215.322 149.288 209.05 149.288ZM209.05 145.288C213.018 145.288 215.706 142.184 215.706 138.12C215.706 134.056 213.018 130.952 209.05 130.952C205.082 130.952 202.394 134.056 202.394 138.12C202.394 142.184 205.082 145.288 209.05 145.288ZM241.866 149.256C235.722 149.256 230.73 144.744 230.73 138.12C230.73 131.496 235.722 126.984 241.866 126.984C248.01 126.984 253.002 131.496 253.002 138.12C253.002 144.744 248.01 149.256 241.866 149.256ZM241.866 148.072C247.466 148.072 251.658 143.816 251.658 138.12C251.658 132.424 247.466 128.168 241.866 128.168C236.266 128.168 232.074 132.424 232.074 138.12C232.074 143.816 236.266 148.072 241.866 148.072ZM261.499 149V128.392H254.587V127.24H269.723V128.392H262.811V149H261.499ZM282.461 142.376L287.293 149H285.725L281.181 142.792C280.381 142.984 279.453 143.08 278.461 143.08H275.389V149H274.077V127.24H278.461C284.349 127.24 287.133 130.76 287.133 135.176C287.133 138.376 285.629 141.128 282.461 142.376ZM275.389 141.928H278.333C283.837 141.928 285.789 138.76 285.789 135.176C285.789 131.592 283.837 128.392 278.333 128.392H275.389V141.928ZM290.689 149L299.489 126.984H299.873L308.705 149H307.361L305.697 144.776H293.665L292.001 149H290.689ZM294.113 143.624H305.217L300.321 131.208C300.001 130.44 299.681 129.224 299.681 129.224C299.681 129.224 299.361 130.44 299.041 131.208L294.113 143.624ZM328.178 149.256L319.346 127.24H320.754L327.794 145C328.082 145.704 328.402 146.984 328.402 146.984C328.402 146.984 328.722 145.704 329.01 145L336.05 127.24H337.362L328.562 149.256H328.178ZM342.077 149V127.24H354.781V128.392H343.389V140.04H353.597V141.192H343.389V147.848H355.229V149H342.077ZM358.565 149V148.68L371.781 128.392H360.261V127.24H373.733V127.56L360.549 147.848H374.085V149H358.565Z" fill="white"/>
<g style="mix-blend-mode:overlay" opacity="0.5">
<path d="M985.981 219.789L1047.6 96.5944H987.587L956.013 159.773L985.981 219.789Z" fill="#E9E9E9"/>
<path d="M956.013 28.179L987.587 91.4058H1047.6L985.981 -31.7968L956.013 28.179Z" fill="#E9E9E9"/>
<path d="M890.2 159.773L921.805 223H981.789L920.2 99.7896L890.2 159.773Z" fill="#E9E9E9"/>
<path d="M889.52 29.5633L792.805 222.992L852.813 222.929L981.781 -35H921.805L889.654 29.3417C889.615 29.4208 889.575 29.4921 889.52 29.5633Z" fill="#E9E9E9"/>
<path d="M807.714 29.5633L711 222.992L771.008 222.929L899.976 -35H840L807.841 29.3417C807.809 29.4208 807.762 29.4921 807.714 29.5633Z" fill="#E9E9E9"/>
</g>
</g>
<defs>
<linearGradient id="paint0_linear_2_252" x1="0" y1="94" x2="1065" y2="94" gradientUnits="userSpaceOnUse">
<stop/>
<stop offset="0.668269" stop-color="#111111"/>
<stop offset="1" stop-color="#0F0F0F" stop-opacity="0"/>
</linearGradient>
<linearGradient id="paint1_linear_2_252" x1="230.367" y1="32" x2="10.3419" y2="116.372" gradientUnits="userSpaceOnUse">
<stop offset="0.442308" stop-color="#3BD3DE"/>
<stop offset="0.442408" stop-color="#54E8F3"/>
</linearGradient>
<clipPath id="clip0_2_252">
<rect width="1065" height="188" rx="8" fill="white"/>
</clipPath>
</defs>
</svg>
