<svg width="1024" height="1024" viewBox="0 0 1024 1024" fill="none" xmlns="http://www.w3.org/2000/svg">
<path d="M836.539 894.671L1024 519.893H841.423L745.37 712.094L836.539 894.671Z" fill="#E9E9E9"/>
<path d="M745.37 311.762L841.423 504.108H1024L836.539 129.305L745.37 311.762Z" fill="#E9E9E9"/>
<path d="M545.156 712.093L641.305 904.439H823.786L636.421 529.613L545.156 712.093Z" fill="#E9E9E9"/>
<path d="M543.087 315.973L248.866 904.416L431.419 904.223L823.762 119.561H641.305L543.496 315.299C543.376 315.539 543.256 315.756 543.087 315.973Z" fill="#E9E9E9"/>
<path d="M294.222 315.973L0 904.416L182.553 904.224L574.896 119.561H392.44L294.606 315.299C294.51 315.539 294.366 315.756 294.222 315.973Z" fill="url(#paint0_linear_1_214)"/>
<defs>
<linearGradient id="paint0_linear_1_214" x1="393.242" y1="119.561" x2="-103.046" y2="164.264" gradientUnits="userSpaceOnUse">
<stop offset="0.442308" stop-color="#3BD3DE"/>
<stop offset="0.442408" stop-color="#54E8F3"/>
</linearGradient>
</defs>
</svg>
