<svg width="193" height="40" viewBox="0 0 193 40" fill="none" xmlns="http://www.w3.org/2000/svg">
<path d="M31.4094 33.456L38 20.2798H31.5811L28.2042 27.0371L31.4094 33.456Z" fill="#E9E9E9"/>
<path d="M28.2042 12.9607L31.5811 19.7231H38L31.4094 6.54602L28.2042 12.9607Z" fill="#E9E9E9"/>
<path d="M21.1722 27.0337L24.5525 33.7961H30.9681L24.3808 20.6182L21.1722 27.0337Z" fill="#E9E9E9"/>
<path d="M21.0907 13.1086L10.7467 33.7966L17.1648 33.7899L30.9585 6.20325H24.5438L21.1051 13.0849C21.1009 13.0933 21.0967 13.101 21.0907 13.1086Z" fill="#E9E9E9"/>
<path d="M12.344 13.1086L1.99994 33.7966L8.41801 33.7899L22.2117 6.20325H15.7971L12.3575 13.0849C12.3541 13.0933 12.3491 13.101 12.344 13.1086Z" fill="#54E8F3"/>
<path d="M182.692 30.747V24.0143L174.569 9.25281H177.129L182.977 19.9367C183.451 20.7585 183.893 22.1177 183.893 22.1177C183.893 22.1177 184.368 20.7901 184.81 19.9367L190.626 9.25281H192.997L185.031 23.9195V30.747H182.692Z" fill="#E9E9E9"/>
<path d="M162.51 30.747V9.25281H164.786V28.724H174.932V30.747H162.51Z" fill="#E9E9E9"/>
<path d="M156.254 30.9682L143.421 15.7959C142.82 15.0688 141.935 13.8045 141.935 13.8045C141.935 13.8045 142.125 15.3217 142.125 16.2384V30.747H139.976V9.03149H140.355L153.188 24.2039C153.789 24.9309 154.674 26.1953 154.674 26.1953C154.674 26.1953 154.516 24.678 154.516 23.7614V9.25276H156.634V30.9682H156.254Z" fill="#E9E9E9"/>
<path d="M124.277 30.9998C118.176 30.9998 113.245 26.4797 113.245 19.9999C113.245 13.52 118.176 8.99988 124.277 8.99988C130.409 8.99988 135.34 13.52 135.34 19.9999C135.34 26.4797 130.409 30.9998 124.277 30.9998ZM124.277 28.9453C129.303 28.9453 132.969 25.1205 132.969 19.9999C132.969 14.8792 129.303 11.0545 124.277 11.0545C119.283 11.0545 115.616 14.8792 115.616 19.9999C115.616 25.1205 119.283 28.9453 124.277 28.9453Z" fill="#E9E9E9"/>
<path d="M108.223 30.9682L95.3894 15.7959C94.7888 15.0688 93.9037 13.8045 93.9037 13.8045C93.9037 13.8045 94.0934 15.3217 94.0934 16.2384V30.747H91.944V9.03149H92.3233L105.157 24.2039C105.757 24.9309 106.642 26.1953 106.642 26.1953C106.642 26.1953 106.484 24.678 106.484 23.7614V9.25276H108.602V30.9682H108.223Z" fill="#E9E9E9"/>
<path d="M69.4301 30.747L78.3438 9.03149H78.7231L87.8266 30.747H85.4243L83.9703 27.1435H73.0967L71.6743 30.747H69.4301ZM73.8869 25.1838H83.1484L79.3553 15.6378C78.9444 14.6263 78.5335 13.0775 78.5335 13.0775C78.5335 13.0775 78.091 14.6263 77.68 15.6378L73.8869 25.1838Z" fill="#E9E9E9"/>
<path d="M54.0861 22.3706C54.5602 21.4539 55.224 20.2528 55.6349 19.7154L63.7585 9.25281H66.3188L58.3533 19.6206L67.1723 30.747H64.3591L56.8677 21.2959L54.2757 24.4252V30.747H51.9999V9.25281H54.2757V19.431C54.2757 20.4424 54.1493 21.6752 54.0861 22.3706Z" fill="#E9E9E9"/>
</svg>
