<svg width="337" height="188" viewBox="0 0 337 188" fill="none" xmlns="http://www.w3.org/2000/svg">
<path d="M274.981 219.789L336.602 96.5944H276.587L245.013 159.773L274.981 219.789Z" fill="#151515"/>
<path d="M245.013 28.179L276.587 91.4058H336.602L274.981 -31.7967L245.013 28.179Z" fill="#151515"/>
<path d="M179.2 159.773L210.805 223H270.789L209.2 99.7895L179.2 159.773Z" fill="#151515"/>
<path d="M178.52 29.5633L81.8055 222.992L141.813 222.929L270.781 -35H210.805L178.654 29.3417C178.615 29.4208 178.575 29.4921 178.52 29.5633Z" fill="#151515"/>
<path d="M96.7145 29.5633L0 222.992L60.0076 222.929L188.976 -35H129L96.841 29.3417C96.8093 29.4208 96.7619 29.4921 96.7145 29.5633Z" fill="#151515"/>
</svg>
